<svg width="131" height="40" viewBox="0 0 131 40" fill="none" xmlns="http://www.w3.org/2000/svg">
<path d="M46.773 12.7061H49.8399C50.3635 12.7061 50.7909 13.1325 50.7909 13.6547V22.3522C50.7909 23.3754 51.0688 24.1535 51.6244 24.7078C52.1801 25.262 52.896 25.5392 53.783 25.5392C54.328 25.5392 54.8409 25.4326 55.311 25.2194C55.7919 25.0062 56.198 24.7078 56.5399 24.3241C56.8819 23.9404 57.149 23.4927 57.3414 22.9811C57.5337 22.4695 57.6299 21.9259 57.6299 21.3396V12.7168H61.6478V28.6408H58.6985C58.1962 28.6408 57.7795 28.2465 57.7474 27.7455L57.694 26.8395C57.491 27.0633 57.2452 27.3085 56.946 27.5536C56.6468 27.7988 56.3155 28.0333 55.9201 28.2465C55.5355 28.4596 55.0867 28.6408 54.5951 28.7687C54.0929 28.9073 53.5265 28.9712 52.896 28.9712C50.8978 28.9712 49.3804 28.3744 48.3332 27.1912C47.286 26.0081 46.7624 24.3987 46.7624 22.3842V12.7061H46.773Z" fill="#0066C2"/>
<path d="M62.9835 12.7061H65.9328C66.435 12.7061 66.8518 13.1005 66.8838 13.6014L66.9373 14.5074C67.1403 14.2836 67.3861 14.0491 67.6639 13.7933C67.9524 13.5481 68.2837 13.3136 68.6897 13.1005C69.0851 12.8873 69.5339 12.7061 70.0362 12.5782C70.5384 12.4396 71.1047 12.3757 71.7352 12.3757C73.7335 12.3757 75.2509 12.9726 76.2981 14.1557C77.3453 15.3388 77.8689 16.9482 77.8689 18.9627V28.6408H74.8021C74.2784 28.6408 73.851 28.2145 73.851 27.6922V19.0054C73.851 17.9821 73.5732 17.2041 73.0175 16.6498C72.4618 16.0955 71.7459 15.8184 70.859 15.8184C70.314 15.8184 69.8011 15.925 69.3309 16.1382C68.85 16.3514 68.444 16.6498 68.102 17.0335C67.7601 17.4172 67.4929 17.8649 67.3006 18.3765C67.1082 18.8881 67.0121 19.4317 67.0121 20.0179V28.6408H63.9452C63.4216 28.6408 62.9942 28.2145 62.9942 27.6922V12.7061H62.9835Z" fill="#0066C2"/>
<path d="M78.9268 12.7061H81.9936C82.5172 12.7061 82.9447 13.1325 82.9447 13.6547V28.6302H79.8778C79.3542 28.6302 78.9268 28.2038 78.9268 27.6816V12.7061Z" fill="#0066C2"/>
<path d="M95.6181 27.0633C95.4151 27.2871 95.1693 27.5323 94.8701 27.7774C94.5709 28.0226 94.2289 28.2571 93.8336 28.4596C93.4382 28.6621 92.9894 28.8326 92.5085 28.9712C92.017 29.1098 91.472 29.1737 90.8629 29.1737C89.9973 29.1737 89.1532 28.9925 88.309 28.6301C87.4648 28.2677 86.7168 27.7348 86.065 27.0313C85.4024 26.3279 84.8788 25.4752 84.4621 24.4519C84.056 23.4287 83.853 22.2669 83.853 20.9559C83.853 19.7088 84.0346 18.6216 84.398 17.6837C84.7613 16.7457 85.2101 15.9463 85.7551 15.2855C86.2039 14.7419 86.7061 14.2942 87.2511 13.9318C87.7961 13.5694 88.341 13.271 88.8967 13.0365C89.4524 12.802 89.9867 12.6315 90.5103 12.5249C91.0339 12.4183 91.4827 12.3757 91.8674 12.3757C92.391 12.3757 92.8184 12.397 93.1604 12.4289C93.5023 12.4609 93.8122 12.5036 94.0794 12.5675C94.3465 12.6208 94.603 12.6954 94.8274 12.7913C95.0518 12.8873 95.3189 12.9832 95.6074 13.1004V6.00177H98.6422C99.1658 6.00177 99.5933 6.42812 99.5933 6.95039V28.6408H96.6012C96.099 28.6408 95.6822 28.2571 95.6502 27.7561L95.6181 27.0633ZM95.6181 16.6818C95.2334 16.362 94.7846 16.1488 94.2717 16.0209C93.7588 15.893 93.1069 15.8291 92.3162 15.8291C91.5254 15.8291 90.8629 15.9783 90.3393 16.2874C89.8157 16.5965 89.3669 16.9909 88.9822 17.4918C88.6402 17.9395 88.3731 18.4724 88.1808 19.0693C87.9884 19.6662 87.8922 20.295 87.8922 20.9559C87.8922 22.3095 88.2342 23.45 88.9181 24.3453C89.602 25.2513 90.5851 25.699 91.8781 25.699C92.562 25.699 93.139 25.5711 93.6092 25.3046C94.09 25.0488 94.4747 24.7077 94.7632 24.3027C95.0625 23.8977 95.2762 23.45 95.4151 22.9597C95.554 22.4694 95.6181 22.0004 95.6181 21.5528V16.6818Z" fill="#0066C2"/>
<path d="M111.145 27.1379C110.717 27.6602 110.055 28.1185 109.168 28.5342C108.281 28.9392 107.298 29.1418 106.208 29.1418C105.545 29.1418 104.893 29.0352 104.252 28.8327C103.6 28.6301 103.013 28.321 102.478 27.8947C101.944 27.479 101.517 26.9354 101.185 26.2852C100.854 25.6244 100.694 24.857 100.694 23.9723C100.694 23.0663 100.865 22.2563 101.207 21.5421C101.549 20.828 102.019 20.2311 102.639 19.7408C103.248 19.2505 103.985 18.8881 104.851 18.6323C105.716 18.3872 106.667 18.2593 107.715 18.2593C108.035 18.2593 108.388 18.2699 108.772 18.2806C109.157 18.2912 109.531 18.3125 109.894 18.3339C110.3 18.3552 110.717 18.3765 111.155 18.3978V18.0248C111.155 17.236 110.835 16.6072 110.204 16.1595C109.574 15.7118 108.74 15.4773 107.725 15.4773C106.592 15.4773 105.684 15.6266 105 15.9143C104.626 16.0742 104.274 16.2448 103.942 16.426C103.515 16.6605 102.97 16.5325 102.703 16.1275L101.367 14.1557C101.688 13.9318 102.051 13.6973 102.457 13.4629C102.863 13.2284 103.344 13.0152 103.889 12.8127C104.434 12.6208 105.064 12.4609 105.78 12.333C106.496 12.2051 107.33 12.1412 108.281 12.1412C109.307 12.1412 110.226 12.2797 111.059 12.5675C111.882 12.8553 112.598 13.2497 113.186 13.7506C113.773 14.2623 114.233 14.8698 114.543 15.5839C114.863 16.2981 115.024 17.0761 115.024 17.9075V28.5982H112.171C111.668 28.5982 111.252 28.2144 111.219 27.7135L111.145 27.1379ZM111.145 21.4355C110.739 21.4142 110.343 21.3929 109.959 21.3716C109.638 21.3503 109.307 21.3289 108.954 21.3183C108.601 21.3076 108.302 21.297 108.056 21.297C106.763 21.297 105.855 21.5528 105.332 22.0644C104.808 22.576 104.552 23.1516 104.552 23.8124C104.552 24.4946 104.797 25.0275 105.278 25.4112C105.77 25.7949 106.486 25.9868 107.437 25.9868C107.918 25.9868 108.377 25.9122 108.815 25.7523C109.253 25.5924 109.649 25.3792 109.991 25.1021C110.333 24.8357 110.61 24.5159 110.824 24.1535C111.038 23.7911 111.145 23.4074 111.145 23.0024V21.4355Z" fill="#0066C2"/>
<path d="M117.695 24.7504C118.016 24.3986 118.55 24.3347 118.935 24.6118C119.309 24.8783 119.725 25.1128 120.196 25.3153C120.954 25.6457 121.82 25.8056 122.803 25.8056C123.668 25.8056 124.352 25.6883 124.876 25.4645C125.4 25.2407 125.656 24.8676 125.656 24.3454C125.656 24.1215 125.613 23.9083 125.517 23.7165C125.421 23.5246 125.229 23.3328 124.94 23.1516C124.641 22.9704 124.235 22.7892 123.711 22.608C123.188 22.4268 122.482 22.2349 121.606 22.0324C121.061 21.8939 120.495 21.7127 119.907 21.4888C119.319 21.265 118.764 20.9559 118.261 20.5509C117.749 20.1565 117.332 19.6769 117.001 19.1226C116.669 18.5684 116.509 17.9075 116.509 17.1401C116.509 16.3514 116.701 15.6372 117.086 15.019C117.471 14.4008 117.973 13.8785 118.603 13.4522C119.223 13.0365 119.928 12.7061 120.709 12.4823C121.489 12.2584 122.279 12.1412 123.07 12.1412C124.481 12.1412 125.677 12.2904 126.661 12.5782C127.644 12.8766 128.541 13.3136 129.332 13.8999L127.772 16.0103C127.494 16.3833 126.992 16.5112 126.575 16.2981C126.276 16.1382 125.934 15.989 125.549 15.8504C124.844 15.5946 124.021 15.456 123.07 15.456C122.119 15.456 121.457 15.5946 121.083 15.8824C120.709 16.1702 120.516 16.5112 120.516 16.9163C120.516 17.4172 120.826 17.8009 121.457 18.0887C122.076 18.3765 123.049 18.6749 124.363 18.984C125.175 19.1652 125.913 19.3891 126.554 19.6662C127.206 19.9327 127.761 20.2737 128.221 20.6894C128.68 21.0945 129.043 21.5741 129.289 22.1283C129.535 22.6826 129.663 23.3434 129.663 24.1109C129.663 24.8783 129.482 25.5818 129.118 26.2C128.755 26.8182 128.263 27.3511 127.633 27.7774C127.013 28.2038 126.287 28.5449 125.453 28.7794C124.62 29.0139 123.743 29.1311 122.814 29.1311C121.318 29.1311 119.971 28.9179 118.764 28.5022C117.556 28.0865 116.594 27.4683 115.868 26.6476L117.695 24.7504Z" fill="#0066C2"/>
<path d="M80.9464 10.2866C82.1386 10.2866 83.105 9.32262 83.105 8.13352C83.105 6.94442 82.1386 5.98047 80.9464 5.98047C79.7543 5.98047 78.7879 6.94442 78.7879 8.13352C78.7879 9.32262 79.7543 10.2866 80.9464 10.2866Z" fill="#0066C2"/>
<path d="M20.2507 39.065C9.82131 39.065 1.33673 30.602 1.33673 20.1992C1.33673 9.7963 9.82131 1.33331 20.2507 1.33331C30.6801 1.33331 39.1647 9.7963 39.1647 20.1992C39.1647 30.602 30.6801 39.065 20.2507 39.065ZM20.2507 10.4891C14.8757 10.4891 10.5052 14.8485 10.5052 20.2098C10.5052 25.5711 14.8757 29.9305 20.2507 29.9305C25.6257 29.9305 29.9962 25.5711 29.9962 20.2098C29.9962 14.8485 25.6257 10.4891 20.2507 10.4891Z" fill="#0066C2"/>
</svg>
